<?xml version="1.0" encoding="utf-8"?>
<!-- Generator: Adobe Illustrator 19.2.0, SVG Export Plug-In . SVG Version: 6.00 Build 0)  -->
<svg version="1.1" id="Layer_1" xmlns="http://www.w3.org/2000/svg" xmlns:xlink="http://www.w3.org/1999/xlink" x="0px" y="0px"
	 viewBox="0 0 650 414" style="enable-background:new 0 0 650 414;" xml:space="preserve">
<path fill="currentColor" d="M402,177c21,129-62,237-195,237C93,414,0,321,0,207S93,0,207,0c89,0,138,54,138,54l-56,54c0,0-29-32-82-32
	c-71,0-128,59-128,131c0,73,57,131,128,131c81,0,113-58,117-90H207v-71H402z M591,118v59h59v60h-59v59h-59v-59h-59v-60h59v-59H591z"
	/>
</svg>
