<?xml version="1.0" encoding="utf-8"?>
<!-- Generator: Adobe Illustrator 16.0.0, SVG Export Plug-In . SVG Version: 6.00 Build 0)  -->
<!DOCTYPE svg PUBLIC "-//W3C//DTD SVG 1.1//EN" "http://www.w3.org/Graphics/SVG/1.1/DTD/svg11.dtd">
<svg version="1.1" id="Layer_1" xmlns="http://www.w3.org/2000/svg" xmlns:xlink="http://www.w3.org/1999/xlink" x="0px" y="0px"
	 width="30px" height="28.696px" viewBox="12.103 9.111 30 28.696" enable-background="new 12.103 9.111 30 28.696"
	 xml:space="preserve">
<g>
	<path fill="black" d="M30.247,23.781l11.556,10.995c0.199,0.191,0.301,0.41,0.301,0.657
		s-0.102,0.468-0.301,0.657l-1.503,1.432c-0.201,0.189-0.433,0.285-0.693,0.285c-0.26,0-0.488-0.096-0.689-0.285l-11.63-11.063
		c-0.044,0.005-0.084,0.025-0.133,0.025c-0.076,0-0.146-0.025-0.217-0.044L15.29,37.522c-0.201,0.189-0.433,0.285-0.693,0.285
		s-0.492-0.096-0.69-0.285l-1.503-1.432c-0.202-0.189-0.301-0.41-0.301-0.657s0.099-0.466,0.301-0.657L24.013,23.73L12.557,12.275
		c-0.199-0.198-0.298-0.428-0.298-0.686c0-0.259,0.1-0.488,0.298-0.687l1.493-1.493c0.199-0.199,0.428-0.299,0.688-0.299
		c0.257,0,0.486,0.1,0.685,0.299l11.731,11.731L38.885,9.41c0.199-0.199,0.428-0.299,0.688-0.299c0.257,0,0.486,0.1,0.685,0.299
		l1.493,1.493c0.198,0.199,0.298,0.428,0.298,0.687c0,0.258-0.1,0.487-0.298,0.686L30.247,23.781z"/>
</g>
</svg>
