<?xml version="1.0" encoding="utf-8"?>
<!-- Generator: Adobe Illustrator 19.2.0, SVG Export Plug-In . SVG Version: 6.00 Build 0)  -->
<svg version="1.1" id="Layer_1" xmlns="http://www.w3.org/2000/svg" xmlns:xlink="http://www.w3.org/1999/xlink" x="0px" y="0px"
	 viewBox="0 0 500 500" style="enable-background:new 0 0 500 500;" xml:space="preserve">
<path fill="currentColor" d="M0,250C0,131,0,84,42,42S130,0,250,0s166,0,208,42s42,89,42,208s0,166-42,208s-88,42-208,42s-166,0-208-42S0,369,0,250z
	 M455,250c0-114,0-148-29-176c-29-29-62-29-176-29S102,45,74,74c-29,29-29,62-29,176s0,148,29,176c29,29,62,29,176,29s148,0,176-29
	C455,397,455,364,455,250z M250,122c70.7,0,128,57.3,128,128s-57.3,128-128,128s-128-57.3-128-128S179.3,122,250,122z M250,333
	c46,0,83-37,83-83s-37-83-83-83s-83,37-83,83S204,333,250,333z M413,117c0,16-13,30-30,30c-16,0-30-14-30-30c0-17,14-30,30-30
	C400,87,413,100,413,117z"/>
</svg>
