<svg xmlns="http://www.w3.org/2000/svg" viewBox="0 0 500 500">
  <path fill="currentColor" d="M0 250C0 131 0 84 42 42S130 0 250 0s166 0 208 42 42 89 42 208 0 166-42 208-88 42-208 42-166 0-208-42S0 369 0 250zm455 0c0-114 0-148-29-176-29-29-62-29-176-29S102 45 74 74c-29 29-29 62-29 176s0 148 29 176c29 29 62 29 176 29s148 0 176-29c29-29 29-62 29-176zM250 122c70.7 0 128 57.3 128 128s-57.3 128-128 128-128-57.3-128-128 57.3-128 128-128zm0 211c46 0 83-37 83-83s-37-83-83-83-83 37-83 83 37 83 83 83zm163-216c0 16-13 30-30 30-16 0-30-14-30-30 0-17 14-30 30-30 17 0 30 13 30 30z"/>
</svg>