<?xml version="1.0" encoding="utf-8"?>
<!-- Generator: Adobe Illustrator 19.2.0, SVG Export Plug-In . SVG Version: 6.00 Build 0)  -->
<svg version="1.1" id="Layer_1" xmlns="http://www.w3.org/2000/svg" xmlns:xlink="http://www.w3.org/1999/xlink" x="0px" y="0px"
	 viewBox="0 0 420 534.1" style="enable-background:new 0 0 420 534.1;" xml:space="preserve">
<path fill="currentColor" d="M97,534c-9-3-15-77-6-115l38-163c0,0-9-20-9-49c0-46,26-80,59-80c28,0,42,21,42,46c0,28-19,71-28,110c-8,33,17,59,49,59
	c58,0,104-61,104-150c0-79-57-134-138-134c-94,0-148,69-148,142c0,28,9.7,57.4,23,74c4,5,5,6,2,17l-8,31c0,0-2,9.5-14,3
	C22,302.7,0,247,0,199C0,95,75,0,217,0c114,0,203,81,203,190c0,113-72,205-171,205c-55,0-75-38-75-38l-21,78C142,476,106,537,97,534
	z"/>
</svg>
