<?xml version="1.0" encoding="utf-8"?>
<!-- Generator: Adobe Illustrator 19.2.0, SVG Export Plug-In . SVG Version: 6.00 Build 0)  -->
<svg version="1.1" id="Layer_1" xmlns="http://www.w3.org/2000/svg" xmlns:xlink="http://www.w3.org/1999/xlink" x="0px" y="0px"
	 viewBox="0 0 538 437.6" style="enable-background:new 0 0 538 437.6;" xml:space="preserve">
<path fill="currentColor" d="M538,51.6c0,0-21,34-55,57c7,156-107,329-314,329c-103,0-169-50-169-50s81,17,163-45c-83-5-103-77-103-77s23,6,50-2
	c-93-23-89-110-89-110s23,14,50,14c-84-65-34-148-34-148s76,107,228,116c-22-121,117-177,188-101c37-6,71-27,71-27s-12,41-49,61
	C505,66.6,538,51.6,538,51.6z"/>
</svg>
